<svg width="0" height="0"><symbol fill="none" xmlns="http://www.w3.org/2000/svg" viewBox="0 0 697 799" id="Symbol"><g clip-path="url(#clip0_22728_11332)" fill-rule="evenodd" clip-rule="evenodd"><path d="M245.112 340h186.97c53.711 0 98.536 22.912 126.408 61.63 27.85 38.72 28.709 103.326 12.468 153.868l-20.764 64.525C541.522 646.966 500.918 774.384 493 799H391s1.559 1.366 86.767-263.5c7.523-23.374 11.819-61.315 0-77.723-11.799-16.407-31.707-26.117-58.049-26.117H266.886c-30.01 0-56.603 19.518-65.887 48.345L245.112 340z" fill="url(#paint0_linear_22728_11332)"/><path d="M99.344 799H-.368C84.498 532.509 170.329 266.331 255.698 0h99.578a633.16 633.16 0 01-1.277 4.006C215.866 429.03 262.985 285.497 99.344 799z" fill="#F0145A"/></g><defs><linearGradient id="paint0_linear_22728_11332" x1="521.823" y1="798.999" x2="268.503" y2="516.696" gradientUnits="userSpaceOnUse"><stop stop-color="#F0145A"/><stop offset="1" stop-color="#693264"/></linearGradient><clipPath id="clip0_22728_11332"><path fill="#fff" d="M0 0h697v799H0z"/></clipPath></defs></symbol><symbol xmlns="http://www.w3.org/2000/svg" viewBox="0 0 24 25" id="fb"><path d="M24 12.573C24 5.905 18.627.5 12 .5S0 5.905 0 12.573C0 18.6 4.388 23.594 10.125 24.5v-8.437H7.078v-3.49h3.047v-2.66c0-3.025 1.791-4.697 4.533-4.697 1.313 0 2.686.236 2.686.236v2.971H15.83c-1.491 0-1.956.93-1.956 1.886v2.264h3.328l-.532 3.49h-2.796V24.5C19.612 23.594 24 18.6 24 12.573z"/></symbol><symbol fill="none" xmlns="http://www.w3.org/2000/svg" viewBox="0 0 12 26" id="Slash"><path fill-rule="evenodd" clip-rule="evenodd" d="M8.728 0h3.223L3.556 26H.333L8.728 0z" fill="#F0145A"/></symbol><symbol fill="none" xmlns="http://www.w3.org/2000/svg" viewBox="0 0 92 92" id="Icon3"><rect width="92" height="92" rx="24" fill="#fff"/><g clip-path="url(#clip0_22728_12626)"><path d="M74.526 51.727a5.595 5.595 0 00-2.15-.429 5.61 5.61 0 00-4.187 1.864l-1.22-.506-3.48-1.441A18.19 18.19 0 0064.25 46c0-1.812-.266-3.562-.76-5.215l3.48-1.441 1.22-.506a5.61 5.61 0 004.186 1.863 5.632 5.632 0 005.195-7.779 5.61 5.61 0 00-5.198-3.473 5.634 5.634 0 00-5.615 5.923l-1.227.508-3.479 1.441a18.381 18.381 0 00-7.373-7.373l1.441-3.479.508-1.225a5.61 5.61 0 005.494-3.465A5.632 5.632 0 0056.926 14a5.61 5.61 0 00-5.199 3.473 5.634 5.634 0 001.436 6.334l-.507 1.223-1.441 3.48A18.196 18.196 0 0046 27.75c-1.812 0-3.562.267-5.215.76l-1.441-3.48-.507-1.223a5.634 5.634 0 001.435-6.334A5.61 5.61 0 0035.074 14a5.631 5.631 0 00-5.195 7.779 5.61 5.61 0 005.494 3.465l.508 1.226 1.44 3.479a18.38 18.38 0 00-7.372 7.373l-3.48-1.441-1.227-.508a5.634 5.634 0 00-3.463-5.494 5.595 5.595 0 00-2.151-.43 5.61 5.61 0 00-5.199 3.474 5.632 5.632 0 005.196 7.779 5.61 5.61 0 004.185-1.864l1.22.506 3.48 1.441A18.19 18.19 0 0027.75 46c0 1.812.267 3.562.76 5.215l-3.48 1.441-1.22.506a5.61 5.61 0 00-4.185-1.864 5.632 5.632 0 00-5.195 7.779 5.61 5.61 0 005.198 3.473c.74 0 1.463-.144 2.15-.429a5.634 5.634 0 003.464-5.494l1.227-.508 3.48-1.44a18.382 18.382 0 007.373 7.372l-1.441 3.48-.508 1.225a5.61 5.61 0 00-5.494 3.465A5.632 5.632 0 0035.073 78a5.61 5.61 0 005.198-3.474 5.634 5.634 0 00-1.435-6.333l.506-1.223 1.442-3.48c1.653.493 3.403.76 5.215.76 1.811 0 3.561-.267 5.215-.76l1.441 3.48.507 1.223a5.634 5.634 0 00-1.436 6.334A5.61 5.61 0 0056.925 78a5.631 5.631 0 005.195-7.779 5.61 5.61 0 00-5.494-3.465l-.507-1.226-1.441-3.479a18.381 18.381 0 007.373-7.373l3.479 1.441 1.227.508a5.634 5.634 0 003.464 5.494c.687.285 1.41.43 2.15.43a5.61 5.61 0 005.2-3.474 5.631 5.631 0 00-3.045-7.35zM46 60.5c-7.995 0-14.5-6.505-14.5-14.5S38.005 31.5 46 31.5 60.5 38.005 60.5 46 53.995 60.5 46 60.5z" fill="#000"/><path d="M74.526 51.727a5.595 5.595 0 00-2.15-.429 5.61 5.61 0 00-4.187 1.864l-1.22-.506-3.48-1.441A18.19 18.19 0 0064.25 46c0-1.812-.266-3.562-.76-5.215l3.48-1.441 1.22-.506a5.61 5.61 0 004.186 1.863 5.632 5.632 0 005.195-7.779 5.61 5.61 0 00-5.198-3.473 5.634 5.634 0 00-5.615 5.923l-1.227.508-3.479 1.441a18.381 18.381 0 00-7.373-7.373l1.441-3.479.508-1.225a5.61 5.61 0 005.494-3.465A5.632 5.632 0 0056.926 14a5.61 5.61 0 00-5.199 3.473 5.634 5.634 0 001.436 6.334l-.507 1.223-1.441 3.48A18.196 18.196 0 0046 27.75c-1.812 0-3.562.267-5.215.76l-1.441-3.48-.507-1.223a5.634 5.634 0 001.435-6.334A5.61 5.61 0 0035.074 14a5.631 5.631 0 00-5.195 7.779 5.61 5.61 0 005.494 3.465l.508 1.226 1.44 3.479a18.38 18.38 0 00-7.372 7.373l-3.48-1.441-1.227-.508a5.634 5.634 0 00-3.463-5.494 5.595 5.595 0 00-2.151-.43 5.61 5.61 0 00-5.199 3.474 5.632 5.632 0 005.196 7.779 5.61 5.61 0 004.185-1.864l1.22.506 3.48 1.441A18.19 18.19 0 0027.75 46c0 1.812.267 3.562.76 5.215l-3.48 1.441-1.22.506a5.61 5.61 0 00-4.185-1.864 5.632 5.632 0 00-5.195 7.779 5.61 5.61 0 005.198 3.473c.74 0 1.463-.144 2.15-.429a5.634 5.634 0 003.464-5.494l1.227-.508 3.48-1.44a18.382 18.382 0 007.373 7.372l-1.441 3.48-.508 1.225a5.61 5.61 0 00-5.494 3.465A5.632 5.632 0 0035.073 78a5.61 5.61 0 005.198-3.474 5.634 5.634 0 00-1.435-6.333l.506-1.223 1.442-3.48c1.653.493 3.403.76 5.215.76 1.811 0 3.561-.267 5.215-.76l1.441 3.48.507 1.223a5.634 5.634 0 00-1.436 6.334A5.61 5.61 0 0056.925 78a5.631 5.631 0 005.195-7.779 5.61 5.61 0 00-5.494-3.465l-.507-1.226-1.441-3.479a18.381 18.381 0 007.373-7.373l3.479 1.441 1.227.508a5.634 5.634 0 003.464 5.494c.687.285 1.41.43 2.15.43a5.61 5.61 0 005.2-3.474 5.631 5.631 0 00-3.045-7.35zM46 60.5c-7.995 0-14.5-6.505-14.5-14.5S38.005 31.5 46 31.5 60.5 38.005 60.5 46 53.995 60.5 46 60.5z" fill="url(#paint0_linear_22728_12626)"/><path d="M46 35.25c-5.928 0-10.75 4.822-10.75 10.75S40.072 56.75 46 56.75 56.75 51.928 56.75 46 51.928 35.25 46 35.25zm1.875 14.875h-3.75v-8.25h3.75v8.25z" fill="#000"/><path d="M46 35.25c-5.928 0-10.75 4.822-10.75 10.75S40.072 56.75 46 56.75 56.75 51.928 56.75 46 51.928 35.25 46 35.25zm1.875 14.875h-3.75v-8.25h3.75v8.25z" fill="url(#paint1_linear_22728_12626)"/></g><defs><linearGradient id="paint0_linear_22728_12626" x1="46" y1="14" x2="46" y2="78" gradientUnits="userSpaceOnUse"><stop stop-color="#EF8080"/><stop offset="1" stop-color="#F0145A"/></linearGradient><linearGradient id="paint1_linear_22728_12626" x1="46" y1="35.25" x2="46" y2="56.75" gradientUnits="userSpaceOnUse"><stop stop-color="#EF8080"/><stop offset="1" stop-color="#F0145A"/></linearGradient><clipPath id="clip0_22728_12626"><path fill="#fff" transform="translate(14 14)" d="M0 0h64v64H0z"/></clipPath></defs></symbol><symbol fill="none" xmlns="http://www.w3.org/2000/svg" viewBox="0 0 92 92" id="Icon6"><rect width="92" height="92" rx="24" fill="#fff"/><path d="M54.352 34.389a1.872 1.872 0 002.65 0l2.608-2.608a1.878 1.878 0 000-2.651l-6.583-6.581a1.871 1.871 0 00-2.648 0l-2.609 2.608a1.875 1.875 0 000 2.648l6.582 6.584z" fill="url(#paint0_linear_22728_12647)"/><path d="M38.766 50.265a1.876 1.876 0 002.648 0l2.609-2.61a1.872 1.872 0 000-2.649l-6.583-6.583a1.874 1.874 0 00-2.649 0l-2.608 2.608a1.875 1.875 0 000 2.65l6.583 6.584z" fill="url(#paint1_linear_22728_12647)"/><path d="M68.648 50.891l-2.647-2.65a1.875 1.875 0 00-2.648 0l-1.16 1.16-11.206-11.207 2.427-2.428-6.733-6.73-2.428 2.427-3.092 3.09-2.374 2.374 6.732 6.733 2.377-2.373L59.1 52.492l-1.048 1.05a1.87 1.87 0 000 2.647l2.647 2.648a1.87 1.87 0 002.65 0l5.3-5.297a1.871 1.871 0 000-2.649z" fill="url(#paint2_linear_22728_12647)"/><path d="M49.077 58.943a2.173 2.173 0 00-2.173-2.173H29.936c-1.2 0-2.173.973-2.173 2.172v3.527H23v7.39h30.558v-7.39h-4.481v-3.526z" fill="url(#paint3_linear_22728_12647)"/><defs><linearGradient id="paint0_linear_22728_12647" x1="53.69" y1="22" x2="53.69" y2="34.939" gradientUnits="userSpaceOnUse"><stop stop-color="#EF8080"/><stop offset="1" stop-color="#F0145A"/></linearGradient><linearGradient id="paint1_linear_22728_12647" x1="38.103" y1="37.875" x2="38.103" y2="50.812" gradientUnits="userSpaceOnUse"><stop stop-color="#EF8080"/><stop offset="1" stop-color="#F0145A"/></linearGradient><linearGradient id="paint2_linear_22728_12647" x1="53.992" y1="29.035" x2="53.992" y2="59.388" gradientUnits="userSpaceOnUse"><stop stop-color="#EF8080"/><stop offset="1" stop-color="#F0145A"/></linearGradient><linearGradient id="paint3_linear_22728_12647" x1="38.279" y1="56.77" x2="38.279" y2="69.859" gradientUnits="userSpaceOnUse"><stop stop-color="#EF8080"/><stop offset="1" stop-color="#F0145A"/></linearGradient></defs></symbol><symbol fill="none" xmlns="http://www.w3.org/2000/svg" viewBox="0 0 92 92" id="Icon4"><rect width="92" height="92" rx="24" fill="#fff"/><path d="M56.006 70h-19v6h19v-6z"/><path d="M56.006 70h-19v6h19v-6z" fill="url(#paint0_linear_22728_12633)"/><path d="M29.173 16.452L15.738 29.887l3.535 3.535 13.435-13.435-3.535-3.535z"/><path d="M29.173 16.452L15.738 29.887l3.535 3.535 13.435-13.435-3.535-3.535z" fill="url(#paint1_linear_22728_12633)"/><path d="M63.113 16.32l-3.536 3.535 13.435 13.436 3.536-3.536L63.113 16.32z"/><path d="M63.113 16.32l-3.536 3.535 13.435 13.436 3.536-3.536L63.113 16.32z" fill="url(#paint2_linear_22728_12633)"/><path d="M58.556 23.708l-2.69-.114a5.056 5.056 0 00-4.284 1.432l-5.505 5.505-5.753-5.754a3.84 3.84 0 00-3.858-.909 3.619 3.619 0 01-3.61-.903L32 22.11 21.395 32.718l1.727 1.727-.113 2.692a5.056 5.056 0 001.431 4.283l9.613 9.612a4.985 4.985 0 011.69-3.259l-2.995-2.995.707-.707 3.129 3.129a4.95 4.95 0 011.422-.54v-3.695l-1.722-1.722.707-.707 1.015 1.015V36.2a3.61 3.61 0 013.142-3.625 3.51 3.51 0 01.991.045l-1.23-1.23.708-.707 1.796 1.796a3.542 3.542 0 013.404-1.908 3.602 3.602 0 013.174 3.332 3.558 3.558 0 011.825-.332 3.62 3.62 0 013.19 3.663v3.424a5.003 5.003 0 013.816 3.625l2.788-2.788.708.707-3.316 3.315c0 .014.004.027.004.04v3.32a3.962 3.962 0 002.379-1.128l6.84-6.84a3.84 3.84 0 00.909-3.858 3.618 3.618 0 01.903-3.611l.854-.854L60.284 21.98l-1.728 1.728z"/><path d="M58.556 23.708l-2.69-.114a5.056 5.056 0 00-4.284 1.432l-5.505 5.505-5.753-5.754a3.84 3.84 0 00-3.858-.909 3.619 3.619 0 01-3.61-.903L32 22.11 21.395 32.718l1.727 1.727-.113 2.692a5.056 5.056 0 001.431 4.283l9.613 9.612a4.985 4.985 0 011.69-3.259l-2.995-2.995.707-.707 3.129 3.129a4.95 4.95 0 011.422-.54v-3.695l-1.722-1.722.707-.707 1.015 1.015V36.2a3.61 3.61 0 013.142-3.625 3.51 3.51 0 01.991.045l-1.23-1.23.708-.707 1.796 1.796a3.542 3.542 0 013.404-1.908 3.602 3.602 0 013.174 3.332 3.558 3.558 0 011.825-.332 3.62 3.62 0 013.19 3.663v3.424a5.003 5.003 0 013.816 3.625l2.788-2.788.708.707-3.316 3.315c0 .014.004.027.004.04v3.32a3.962 3.962 0 002.379-1.128l6.84-6.84a3.84 3.84 0 00.909-3.858 3.618 3.618 0 01.903-3.611l.854-.854L60.284 21.98l-1.728 1.728z" fill="url(#paint3_linear_22728_12633)"/><path d="M43.88 35.69a2.49 2.49 0 00-2.726-2.188 2.598 2.598 0 00-2.242 2.63v11.357a4 4 0 00-4 4v9.673a3.84 3.84 0 002.085 3.37 3.62 3.62 0 011.915 3.193v1.207h15v-2.444l1.984-1.822a5.058 5.058 0 002.016-4.04V45.488a4 4 0 00-4-4v-4.323a2.621 2.621 0 00-2.276-2.668 2.492 2.492 0 00-2.682 2.1h.458V52.04h-1V36.597h.5v-2.431a2.621 2.621 0 00-2.276-2.668 2.501 2.501 0 00-2.724 2.49v1.702h.5v15.444h-1V35.69h.468zm-4.569 20.35h-1v-8h1v8zM53.412 41.8h1v10.443h-1V41.8z"/><path d="M43.88 35.69a2.49 2.49 0 00-2.726-2.188 2.598 2.598 0 00-2.242 2.63v11.357a4 4 0 00-4 4v9.673a3.84 3.84 0 002.085 3.37 3.62 3.62 0 011.915 3.193v1.207h15v-2.444l1.984-1.822a5.058 5.058 0 002.016-4.04V45.488a4 4 0 00-4-4v-4.323a2.621 2.621 0 00-2.276-2.668 2.492 2.492 0 00-2.682 2.1h.458V52.04h-1V36.597h.5v-2.431a2.621 2.621 0 00-2.276-2.668 2.501 2.501 0 00-2.724 2.49v1.702h.5v15.444h-1V35.69h.468zm-4.569 20.35h-1v-8h1v8zM53.412 41.8h1v10.443h-1V41.8z" fill="url(#paint4_linear_22728_12633)"/><defs><linearGradient id="paint0_linear_22728_12633" x1="46.506" y1="70" x2="46.506" y2="76" gradientUnits="userSpaceOnUse"><stop stop-color="#EF8080"/><stop offset="1" stop-color="#F0145A"/></linearGradient><linearGradient id="paint1_linear_22728_12633" x1="22.455" y1="23.169" x2="25.991" y2="26.705" gradientUnits="userSpaceOnUse"><stop stop-color="#EF8080"/><stop offset="1" stop-color="#F0145A"/></linearGradient><linearGradient id="paint2_linear_22728_12633" x1="61.345" y1="18.088" x2="74.78" y2="31.523" gradientUnits="userSpaceOnUse"><stop stop-color="#EF8080"/><stop offset="1" stop-color="#F0145A"/></linearGradient><linearGradient id="paint3_linear_22728_12633" x1="46.143" y1="21.98" x2="46.143" y2="51.032" gradientUnits="userSpaceOnUse"><stop stop-color="#EF8080"/><stop offset="1" stop-color="#F0145A"/></linearGradient><linearGradient id="paint4_linear_22728_12633" x1="46.412" y1="31.488" x2="46.412" y2="68.932" gradientUnits="userSpaceOnUse"><stop stop-color="#EF8080"/><stop offset="1" stop-color="#F0145A"/></linearGradient></defs></symbol><symbol fill="none" xmlns="http://www.w3.org/2000/svg" viewBox="0 0 92 92" id="Icon2"><rect width="92" height="92" rx="24" fill="#fff"/><path fill-rule="evenodd" clip-rule="evenodd" d="M67.451 49.078v17.295c0 3.094-2.424 5.629-5.388 5.629H29.97c-2.964 0-5.388-2.535-5.388-5.629V49.078h16.666v7.51l4.769 3.134 4.768-3.133v-7.51h16.666z" fill="url(#paint0_linear_22728_12619)"/><path fill-rule="evenodd" clip-rule="evenodd" d="M42.919 49.078v6.609l3.098 2.035 3.098-2.035v-6.609h-6.197z" fill="url(#paint1_linear_22728_12619)"/><path fill-rule="evenodd" clip-rule="evenodd" d="M26.073 29.145H65.96c1.882 0 3.42 1.708 3.42 3.795v10.253c0 2.088-1.538 3.796-3.42 3.796H26.073c-1.882 0-3.42-1.708-3.42-3.796V32.94c0-2.087 1.538-3.795 3.42-3.795z" fill="url(#paint2_linear_22728_12619)"/><path fill-rule="evenodd" clip-rule="evenodd" d="M37.712 19.955h16.61a2.814 2.814 0 012.805 2.806v4.377H53.57v-2.586c0-.698-.57-1.27-1.268-1.27H39.731c-.698 0-1.268.572-1.268 1.27v2.586h-3.557v-4.377a2.814 2.814 0 012.806-2.806z" fill="url(#paint3_linear_22728_12619)"/><defs><linearGradient id="paint0_linear_22728_12619" x1="46.017" y1="49.078" x2="46.017" y2="72.002" gradientUnits="userSpaceOnUse"><stop stop-color="#EF8080"/><stop offset="1" stop-color="#F0145A"/></linearGradient><linearGradient id="paint1_linear_22728_12619" x1="46.017" y1="49.078" x2="46.017" y2="57.722" gradientUnits="userSpaceOnUse"><stop stop-color="#EF8080"/><stop offset="1" stop-color="#F0145A"/></linearGradient><linearGradient id="paint2_linear_22728_12619" x1="46.016" y1="29.145" x2="46.016" y2="46.989" gradientUnits="userSpaceOnUse"><stop stop-color="#EF8080"/><stop offset="1" stop-color="#F0145A"/></linearGradient><linearGradient id="paint3_linear_22728_12619" x1="46.017" y1="19.955" x2="46.017" y2="27.138" gradientUnits="userSpaceOnUse"><stop stop-color="#EF8080"/><stop offset="1" stop-color="#F0145A"/></linearGradient></defs></symbol><symbol fill="none" xmlns="http://www.w3.org/2000/svg" viewBox="0 0 92 92" id="Icon"><rect width="92" height="92" rx="24" fill="#fff"/><path d="M37.734 42.125a2 2 0 002-2v-7.8A6.332 6.332 0 0146.058 26a6.333 6.333 0 016.325 6.325v7.8a2 2 0 004 0v-7.8C56.383 26.632 51.752 22 46.058 22c-5.692 0-10.324 4.632-10.324 10.325v7.8a2 2 0 002 2z" fill="url(#paint0_linear_22728_12612)"/><path d="M69 37.63H58.384v2.495c0 2.206-1.794 4-4 4s-4-1.794-4-4V37.63h-8.649v2.494c0 2.206-1.794 4-4 4s-4-1.794-4-4V37.63H23c-.552 0-.893.435-.762.97l6.998 28.5C29.658 68.702 31.344 70 33 70h26c1.658 0 3.342-1.298 3.766-2.9l6.996-28.497c.131-.537-.209-.971-.762-.971z" fill="url(#paint1_linear_22728_12612)"/><path d="M42.6 48.4a1.4 1.4 0 112.8 0v6.95V54a1.4 1.4 0 112.8 0v1.676c.013-.762.635-2.376 1.4-2.376a1.4 1.4 0 011.4 1.4s.041 1.041.133 1.103C51.357 55.33 51.84 54 52.4 54a1.4 1.4 0 011.4 1.4v7a2.8 2.8 0 01-2.8 2.8h-4.68a5.6 5.6 0 01-3.96-1.64l-2.21-2.21L37 59.94c.005-1.337 1.053-1.74 2.1-1.74.902 0 1.714.14 3.5 1.05V48.4z" fill="#fff"/><defs><linearGradient id="paint0_linear_22728_12612" x1="46.058" y1="22" x2="46.058" y2="42.125" gradientUnits="userSpaceOnUse"><stop stop-color="#EF8080"/><stop offset="1" stop-color="#F0145A"/></linearGradient><linearGradient id="paint1_linear_22728_12612" x1="46" y1="37.631" x2="46" y2="70" gradientUnits="userSpaceOnUse"><stop stop-color="#EF8080"/><stop offset="1" stop-color="#F0145A"/></linearGradient></defs></symbol></svg>